<?xml version="1.0" standalone="no"?>
<!DOCTYPE svg PUBLIC "-//W3C//DTD SVG 20010904//EN"
 "http://www.w3.org/TR/2001/REC-SVG-20010904/DTD/svg10.dtd">
<svg version="1.0" xmlns="http://www.w3.org/2000/svg"
 width="252.000000pt" height="264.000000pt" viewBox="0 0 252.000000 264.000000"
 preserveAspectRatio="xMidYMid meet">

<g transform="translate(0.000000,264.000000) scale(0.100000,-0.100000)"
fill="#FFFFFF" fill-rule="evenodd" stroke="none">
<path d="M0 1320 l0 -1320 1260 0 1260 0 0 1320 0 1320 -1260 0 -1260 0 0
-1320z m1982 1058 c86 -40 126 -75 180 -157 61 -94 88 -179 95 -309 5 -90 9
-106 30 -130 54 -59 67 -130 35 -192 -21 -42 -75 -80 -113 -80 -28 0 -24 6
-127 -169 -17 -31 -41 -85 -52 -119 -19 -62 -19 -65 -2 -90 30 -44 41 -87 32
-127 -9 -39 -51 -91 -81 -100 -11 -4 -21 -20 -25 -43 -27 -158 -90 -344 -160
-468 -44 -80 -120 -181 -151 -201 -32 -21 -31 -21 -83 137 -71 215 -187 418
-277 487 l-36 27 -29 -34 c-16 -19 -47 -71 -68 -115 -47 -98 -134 -357 -150
-445 -14 -79 -25 -100 -51 -100 -75 0 -206 163 -273 341 -39 104 -90 331 -98
433 -3 39 -2 40 42 52 25 6 52 15 61 18 14 6 18 -3 24 -51 10 -83 44 -238 67
-308 26 -76 83 -192 114 -228 l24 -29 15 36 c8 19 15 40 15 45 0 5 20 58 44
118 87 216 193 403 242 425 32 15 58 -4 137 -98 81 -96 147 -198 220 -341 34
-68 65 -123 68 -123 7 0 61 86 78 125 44 99 82 208 97 271 l16 74 -26 31 c-14
17 -29 42 -32 55 -18 70 29 155 96 175 l40 12 0 54 0 55 -78 76 c-42 42 -110
96 -149 120 -71 43 -72 43 -98 26 -31 -20 -105 -23 -139 -5 -21 12 -29 10 -67
-12 -148 -84 -377 -191 -559 -259 -45 -17 -66 -30 -68 -43 -7 -35 -54 -87 -96
-106 -100 -45 -198 -4 -244 104 -17 40 -14 86 8 136 24 52 22 59 -40 168 -26
45 -60 119 -75 165 -25 72 -28 98 -28 203 -1 105 3 129 26 193 86 238 245 355
457 339 77 -7 140 -27 239 -76 153 -78 260 -108 441 -126 l125 -12 -59 -28
c-81 -38 -185 -52 -285 -38 -72 11 -113 25 -331 116 -142 59 -269 38 -361 -60
-87 -91 -125 -205 -116 -348 6 -106 27 -170 97 -301 44 -79 55 -94 76 -94 35
0 94 -27 124 -55 l26 -25 69 19 c133 37 356 123 518 201 40 19 47 26 47 51 0
81 61 139 145 139 42 0 52 -5 86 -39 23 -23 39 -48 39 -62 0 -33 7 -41 65 -74
66 -38 182 -125 224 -169 l35 -36 34 63 c19 34 42 70 50 80 14 16 13 21 -6 56
-28 50 -30 134 -3 174 10 16 35 39 55 53 41 28 43 40 26 159 -14 97 -58 182
-126 244 -92 84 -155 95 -464 77 -180 -10 -184 -4 -39 50 162 61 223 74 329
71 78 -2 105 -8 152 -29z M0 0 L2520 0 L2520 2640 L0 2640 z"/>
</g>
</svg>
